<svg xmlns="http://www.w3.org/2000/svg" width="34.309" height="34.309" viewBox="0 0 34.309 34.309">
    <g data-name="그룹 1703">
        <g data-name="그룹 1702">
            <path data-name="패스 96" d="M372.725 6.449a6.381 6.381 0 1 1-6.38-6.381 6.381 6.381 0 0 1 6.381 6.381" transform="translate(-359.963 -.068)" style="fill:#00b169"/>
            <path data-name="패스 97" d="M395.333 6.449a6.381 6.381 0 1 1-6.381-6.381 6.381 6.381 0 0 1 6.381 6.381" transform="translate(-371.798 -.068)" style="fill:#00b169"/>
            <path data-name="패스 98" d="M417.942 6.449a6.381 6.381 0 1 1-6.381-6.381 6.381 6.381 0 0 1 6.381 6.381" transform="translate(-383.634 -.068)" style="fill:#00b169"/>
            <path data-name="패스 99" d="M372.725 29.057a6.381 6.381 0 1 1-6.381-6.381 6.381 6.381 0 0 1 6.381 6.381" transform="translate(-359.963 -11.903)" style="fill:#00b169"/>
            <path data-name="패스 100" d="M395.333 29.057a6.381 6.381 0 1 1-6.381-6.381 6.381 6.381 0 0 1 6.381 6.381" transform="translate(-371.798 -11.903)" style="fill:#00b169"/>
            <path data-name="패스 101" d="M417.942 29.057a6.381 6.381 0 1 1-6.381-6.381 6.381 6.381 0 0 1 6.381 6.381" transform="translate(-383.634 -11.903)" style="fill:#00b169"/>
            <path data-name="패스 102" d="M372.725 51.666a6.381 6.381 0 1 1-6.381-6.381 6.381 6.381 0 0 1 6.381 6.381" transform="translate(-359.963 -23.738)" style="fill:#00b169"/>
            <path data-name="패스 103" d="M395.333 51.666a6.381 6.381 0 1 1-6.381-6.381 6.381 6.381 0 0 1 6.381 6.381" transform="translate(-371.798 -23.738)" style="fill:#00b169"/>
            <path data-name="패스 104" d="M417.942 51.666a6.381 6.381 0 1 1-6.381-6.381 6.381 6.381 0 0 1 6.381 6.381" transform="translate(-383.634 -23.738)" style="fill:#00b169"/>
        </g>
    </g>
</svg>
