<svg id="그룹_1224" data-name="그룹 1224" xmlns="http://www.w3.org/2000/svg" width="28.905" height="28.904"
     viewBox="0 0 28.905 28.904">
    <path id="패스_96" data-name="패스 96"
          d="M370.715 5.444a5.376 5.376 0 1 1-5.376-5.376 5.376 5.376 0 0 1 5.376 5.376"
          transform="translate(-359.963 -.068)"/>
    <path id="패스_97" data-name="패스 97"
          d="M393.323 5.444a5.376 5.376 0 1 1-5.376-5.376 5.376 5.376 0 0 1 5.376 5.376"
          transform="translate(-373.495 -.068)"/>
    <path id="패스_98" data-name="패스 98"
          d="M415.932 5.444a5.376 5.376 0 1 1-5.376-5.376 5.376 5.376 0 0 1 5.376 5.376"
          transform="translate(-387.027 -.068)"/>
    <path id="패스_99" data-name="패스 99"
          d="M370.715 28.052a5.376 5.376 0 1 1-5.376-5.376 5.376 5.376 0 0 1 5.376 5.376"
          transform="translate(-359.963 -13.6)"/>
    <path id="패스_100" data-name="패스 100"
          d="M393.323 28.052a5.376 5.376 0 1 1-5.376-5.376 5.376 5.376 0 0 1 5.376 5.376"
          transform="translate(-373.495 -13.6)"/>
    <path id="패스_101" data-name="패스 101"
          d="M415.932 28.052a5.376 5.376 0 1 1-5.376-5.376 5.376 5.376 0 0 1 5.376 5.376"
          transform="translate(-387.027 -13.6)"/>
    <path id="패스_102" data-name="패스 102"
          d="M370.715 50.661a5.376 5.376 0 1 1-5.376-5.376 5.376 5.376 0 0 1 5.376 5.376"
          transform="translate(-359.963 -27.132)"/>
    <path id="패스_103" data-name="패스 103"
          d="M393.323 50.661a5.376 5.376 0 1 1-5.376-5.376 5.376 5.376 0 0 1 5.376 5.376"
          transform="translate(-373.495 -27.132)"/>
    <path id="패스_104" data-name="패스 104"
          d="M415.932 50.661a5.376 5.376 0 1 1-5.376-5.376 5.376 5.376 0 0 1 5.376 5.376"
          transform="translate(-387.027 -27.132)"/>
</svg>
