<svg id="그룹_1241" data-name="그룹 1241" xmlns="http://www.w3.org/2000/svg" width="28.857" height="28.857" viewBox="0 0 28.857 28.857">
    <defs>
        <clipPath id="clip-path">
            <path id="사각형_693" data-name="사각형 693" d="M0 0h28.857v28.857H0z"/>
        </clipPath>
    </defs>
    <g id="그룹_1239" data-name="그룹 1239" style="clip-path:url(#clip-path)">
        <path id="패스_128" data-name="패스 128" d="M29.363 24.931a4.432 4.432 0 1 0 4.432 4.432 4.437 4.437 0 0 0-4.432-4.432" transform="translate(-14.934 -14.934)"/>
        <path id="패스_129" data-name="패스 129" d="M21.972 12.594a9.379 9.379 0 1 0 9.379 9.379 9.39 9.39 0 0 0-9.379-9.379m0 15.415a6.036 6.036 0 1 1 6.035-6.036 6.043 6.043 0 0 1-6.035 6.036" transform="translate(-7.544 -7.544)"/>
        <path id="패스_130" data-name="패스 130" d="M14.429 0a14.429 14.429 0 1 0 14.428 14.429A14.428 14.428 0 0 0 14.429 0m0 25.411a10.983 10.983 0 1 1 10.982-10.982 11 11 0 0 1-10.982 10.982"/>
    </g>
</svg>
